<?xml version="1.0" encoding="UTF-8"?>
<svg width="14px" height="14px" viewBox="0 0 14 14" version="1.1" xmlns="http://www.w3.org/2000/svg" xmlns:xlink="http://www.w3.org/1999/xlink">
    <!-- Generator: Sketch 53.1 (72631) - https://sketchapp.com -->
    <title>external-link</title>
    <desc>Created with Sketch.</desc>
    <g id="UX-UI" stroke="none" stroke-width="1" fill="none" fill-rule="evenodd">
        <g id="Ipsen-DT-UI-0100-OurMissions" transform="translate(-280.000000, -876.000000)" fill="#CB1515" fill-rule="nonzero">
            <g id="PROMOTE-SCIENCE" transform="translate(0.000000, 310.000000)">
                <g id="item" transform="translate(150.000000, 176.000000)">
                    <g id="external-link" transform="translate(130.000000, 386.000000)">
                        <g id="external-link/red" transform="translate(0.000000, 4.000000)">
                            <path d="M13.6448628,5.06966429 C13.5739878,4.91303929 13.4182378,4.81328929 13.2467378,4.81328929 L11.4967378,4.81328929 L11.4967378,-0.87421071 C11.4967378,-1.11571071 11.3007378,-1.31171071 11.0592378,-1.31171071 L9.3092378,-1.31171071 C9.0677378,-1.31171071 8.8717378,-1.11571071 8.8717378,-0.87421071 L8.8717378,4.81328929 L7.1217378,4.81328929 C6.9502378,4.81328929 6.7944878,4.91391429 6.7236128,5.06966429 C6.6518628,5.22628929 6.6798628,5.40916429 6.7927378,5.53866429 L9.8552378,9.03866429 C9.9383628,9.13403929 10.0582378,9.18828929 10.1842378,9.18828929 C10.3102378,9.18828929 10.4301128,9.13316429 10.5132378,9.03866429 L13.5757378,5.53866429 C13.6894878,5.41003929 13.7157378,5.22628929 13.6448628,5.06966429 Z" id="Shape" transform="translate(10.184159, 3.938289) rotate(-136.000000) translate(-10.184159, -3.938289) "></path>
                            <path d="M12.25,7.4375 L12.25,12.25 L1.75,12.25 L1.75,9.625 L0,9.625 L0,13.125 C0,13.608875 0.392,14 0.875,14 L13.125,14 C13.608875,14 14,13.608875 14,13.125 L14,7.4375 L12.25,7.4375 Z" id="Shape"></path>
                            <path d="M8.53125,5.90625 L8.53125,8.53125 L-1.96875,8.53125 L-1.96875,3.71875 L-3.71875,3.71875 L-3.71875,9.40625 C-3.71875,9.890125 -3.32675,10.28125 -2.84375,10.28125 L9.40625,10.28125 C9.890125,10.28125 10.28125,9.890125 10.28125,9.40625 L10.28125,5.90625 L8.53125,5.90625 Z" id="Shape-Copy" transform="translate(3.281250, 7.000000) rotate(90.000000) translate(-3.281250, -7.000000) "></path>
                        </g>
                    </g>
                </g>
            </g>
        </g>
    </g>
</svg>