<?xml version="1.0" encoding="UTF-8"?>
<svg width="14px" height="14px" viewBox="0 0 14 14" version="1.1" xmlns="http://www.w3.org/2000/svg" xmlns:xlink="http://www.w3.org/1999/xlink">
    <!-- Generator: Sketch 53.1 (72631) - https://sketchapp.com -->
    <title>fa-linkedin</title>
    <desc>Created with Sketch.</desc>
    <g id="UX-UI" stroke="none" stroke-width="1" fill="none" fill-rule="evenodd">
        <g id="Ipsen-DT-UI-0300-LiveFromLab" transform="translate(-1166.000000, -22.000000)" fill="#FFFFFF">
            <g id="TOP">
                <g id="HEADER">
                    <g id="fa-linkedin/white" transform="translate(1166.000000, 22.000000)">
                        <path d="M0.176841179,13.3216122 L3.16434052,13.3216122 L3.16434052,4.33295733 L0.176841179,4.33295733 L0.176841179,13.3216122 Z M1.6703663,3.10598712 C2.71179188,3.10598712 3.36122133,2.41517755 3.36122133,1.55234312 C3.34204895,0.670769944 2.71224099,0 1.69040592,0 C0.668586337,0 0,0.67033632 0,1.55234312 C0,2.41517755 0.648546711,3.10598712 1.65164303,3.10598712 L1.6703663,3.10598712 Z M13.9379159,13.3216122 L13.9379159,8.16805232 C13.9379159,5.40661048 12.4639813,4.12170499 10.4987351,4.12170499 C8.91284808,4.12170499 8.20202986,4.9941256 7.80611561,5.60652665 L7.80611561,4.33295733 L4.81816716,4.33295733 C4.8577973,5.17663487 4.81816716,13.3216122 4.81816716,13.3216122 L7.80611561,13.3216122 L7.80611561,8.30177887 C7.80611561,8.03390762 7.8252725,7.76516911 7.90453279,7.57352277 C8.12013686,7.03647939 8.6118975,6.48069725 9.43683628,6.48069725 C10.5183256,6.48069725 10.9504165,7.30476878 10.9504165,8.51303122 L10.9504165,13.3220303 L13.9379159,13.3220303 L13.9379159,13.3216122 Z" id="fa-linkedin"></path>
                    </g>
                </g>
            </g>
        </g>
    </g>
</svg>