<?xml version="1.0" encoding="UTF-8"?>
<svg width="14px" height="11px" viewBox="0 0 14 11" version="1.1" xmlns="http://www.w3.org/2000/svg" xmlns:xlink="http://www.w3.org/1999/xlink">
    <!-- Generator: Sketch 53.1 (72631) - https://sketchapp.com -->
    <title>fa-twitter</title>
    <desc>Created with Sketch.</desc>
    <g id="UX-UI" stroke="none" stroke-width="1" fill="none" fill-rule="evenodd">
        <g id="Ipsen-DT-UI-0300-LiveFromLab" transform="translate(-1204.000000, -24.000000)" fill="#FFFFFF">
            <g id="TOP">
                <g id="HEADER">
                    <g id="fa-twitter/white" transform="translate(1204.000000, 24.000000)">
                        <path d="M14,1.30625 C13.6032119,1.86770547 13.1235165,2.34609375 12.5609137,2.74140625 C12.5668388,2.82161172 12.569797,2.94192422 12.569797,3.10234375 C12.569797,3.84713828 12.4572728,4.59049766 12.2322335,5.33242187 C12.0071942,6.07434609 11.6651891,6.78620078 11.2062183,7.46796875 C10.7472475,8.14973672 10.2009277,8.75273437 9.56725888,9.27695313 C8.9335901,9.80117187 8.16963071,10.2194039 7.27538071,10.5316406 C6.38113071,10.8438773 5.42470685,11 4.40609137,11 C2.80118147,11 1.33248731,10.5846383 0,9.75390625 C0.207272843,9.77682578 0.43823731,9.78828125 0.692893401,9.78828125 C2.02538071,9.78828125 3.21277792,9.39296875 4.25507614,8.60234375 C3.63324873,8.59088828 3.07656218,8.40612266 2.58502538,8.04804688 C2.09348858,7.68997109 1.75592513,7.23307578 1.57233503,6.67734375 C1.7677665,6.70598672 1.94838959,6.7203125 2.1142132,6.7203125 C2.36886929,6.7203125 2.62055838,6.68879922 2.86928934,6.62578125 C2.20600381,6.49401328 1.65672589,6.17460937 1.2214467,5.66757813 C0.786167513,5.16054687 0.568527919,4.571875 0.568527919,3.9015625 L0.568527919,3.8671875 C0.971232234,4.08489297 1.4035533,4.20234375 1.86548223,4.21953125 C1.47461929,3.96745078 1.16370558,3.63801797 0.932741117,3.23125 C0.70177665,2.82448203 0.586294416,2.38333047 0.586294416,1.9078125 C0.586294416,1.40364297 0.716585025,0.93671875 0.97715736,0.50703125 C1.69374239,1.36067422 2.56577538,2.04387734 3.59327411,2.55664062 C4.62077284,3.06940391 5.72081218,3.35442422 6.89340102,3.41171875 C6.84602665,3.19401328 6.82233503,2.98203125 6.82233503,2.77578125 C6.82233503,2.00807578 7.10215736,1.35351562 7.66180203,0.812109375 C8.2214467,0.270703125 8.89805711,0 9.69162437,0 C10.5207246,0 11.2195431,0.2921875 11.7880711,0.8765625 C12.4335901,0.75625 13.0406091,0.5328125 13.6091371,0.20625 C13.390014,0.865107031 12.9695431,1.375 12.3477157,1.7359375 C12.8984772,1.67864297 13.4492386,1.53541953 14,1.30625" id="fa-twitter"></path>
                    </g>
                </g>
            </g>
        </g>
    </g>
</svg>