<?xml version="1.0" encoding="UTF-8"?>
<svg width="16px" height="12px" viewBox="0 0 16 12" version="1.1" xmlns="http://www.w3.org/2000/svg" xmlns:xlink="http://www.w3.org/1999/xlink">
    <!-- Generator: Sketch 53.1 (72631) - https://sketchapp.com -->
    <title>Fill 1</title>
    <desc>Created with Sketch.</desc>
    <g id="UX-UI" stroke="none" stroke-width="1" fill="none" fill-rule="evenodd">
        <g id="Ipsen-DT-UI-0300-LiveFromLab" transform="translate(-1242.000000, -23.000000)" fill="#FFFFFF">
            <g id="TOP">
                <g id="HEADER">
                    <path d="M1248.36364,31.5324839 L1248.36364,26.4675161 L1252.54545,29.0000968 L1248.36364,31.5324839 Z M1257.66564,24.8738387 C1257.48164,24.1362258 1256.93945,23.5553871 1256.25109,23.3582581 C1255.00336,23 1250,23 1250,23 C1250,23 1244.99664,23 1243.74891,23.3582581 C1243.06055,23.5553871 1242.51836,24.1362258 1242.33436,24.8738387 C1242,26.2106774 1242,29 1242,29 C1242,29 1242,31.7892258 1242.33436,33.1261613 C1242.51836,33.8637742 1243.06055,34.4446129 1243.74891,34.6418387 C1244.99664,35 1250,35 1250,35 C1250,35 1255.00336,35 1256.25109,34.6418387 C1256.93945,34.4446129 1257.48164,33.8637742 1257.66564,33.1261613 C1258,31.7892258 1258,29 1258,29 C1258,29 1258,26.2106774 1257.66564,24.8738387 L1257.66564,24.8738387 Z" id="Fill-1"></path>
                </g>
            </g>
        </g>
    </g>
</svg>