<?xml version="1.0" encoding="UTF-8"?>
<svg width="200px" height="200px" viewBox="0 0 200 200" version="1.1" xmlns="http://www.w3.org/2000/svg" xmlns:xlink="http://www.w3.org/1999/xlink">
    <!-- Generator: Sketch 53.1 (72631) - https://sketchapp.com -->
    <title>Logo FI Black_White</title>
    <desc>Created with Sketch.</desc>
    <defs>
        <circle id="path-1" cx="100" cy="100" r="100"></circle>
    </defs>
    <g id="UX-UI" stroke="none" stroke-width="1" fill="none" fill-rule="evenodd">
        <g id="Ipsen-DT-UI-0010-Homepage" transform="translate(-120.000000, -40.000000)">
            <g id="Logo-FI-Black_White" transform="translate(120.000000, 40.000000)">
                <g>
                    <mask id="mask-2" fill="white">
                        <use xlink:href="#path-1"></use>
                    </mask>
                    <use id="Mask" fill="#FFFFFF" xlink:href="#path-1"></use>
                    <g id="Group-39" mask="url(#mask-2)">
                        <g transform="translate(20.860142, 20.724687)">
                            <path d="M47.5833661,72.6814765 L56.344084,72.6814765 C56.4559025,72.3633593 56.5606095,72.0463935 56.677914,71.7342364 C59.6389705,63.8579749 65.1541754,58.743786 73.2469624,56.4197765 C73.419465,56.3701998 73.5963021,56.3205554 73.7738842,56.3068744 C74.460237,56.2541822 75.0859059,56.701998 75.2487233,57.3468337 C75.4294887,58.0627159 75.1172638,58.7364714 74.4543447,59.0253979 C74.2491297,59.1147985 74.0262377,59.1642398 73.8107281,59.229597 C66.2323332,61.5280731 61.2674162,66.4673891 58.9571554,74.0330511 C58.0059194,77.1479174 57.9061565,80.3377582 58.461253,83.5460887 C58.4955232,83.7440569 58.5551236,83.937555 58.6177718,84.1938368 L59.356275,84.1938368 C62.6747308,84.1938368 65.9934575,84.2149001 69.3115747,84.179343 C70.16,84.1701998 70.691595,84.4846597 71.1370403,85.1881476 C72.8897663,87.9567897 75.4207518,89.5855063 78.6796749,89.8519472 C82.6880731,90.1796817 85.8297596,88.5631561 88.0752726,85.2209279 C88.2009076,85.0339993 88.306766,84.8299357 88.4540738,84.6621063 C88.9077142,84.1449374 89.6704639,84.0340671 90.2396478,84.3843549 C90.8273214,84.7460887 91.0825195,85.4447003 90.8494006,86.0894006 C90.7887166,86.2572299 90.6979614,86.4167288 90.6048358,86.5701321 C85.847301,94.4093464 74.7064951,94.9129699 69.2604402,87.5275313 C69.0068676,87.1837453 68.7579004,87.0365052 68.3205825,87.0399594 C65.5439485,87.0619031 62.7671791,87.0506603 59.9904775,87.0523535 C59.8137081,87.0524213 59.6369387,87.0688791 59.3840433,87.0814765 C59.4827227,87.3515747 59.5568845,87.5821876 59.6499424,87.8049441 C62.3715814,94.319404 67.1131324,98.5820522 73.8909177,100.573112 C74.0854995,100.630274 74.2891568,100.667457 74.4723603,100.750017 C75.1029055,101.034067 75.4116085,101.688317 75.2578666,102.377718 C75.1138097,103.023705 74.5683982,103.461294 73.8875313,103.455808 C73.6871927,103.454114 73.4825195,103.420183 73.28787,103.369929 C64.3268134,101.057636 57.3749001,93.5903827 55.706766,84.5052489 C55.2009076,81.7501524 55.1335185,78.9917372 55.5565459,76.2218083 C55.5767965,76.0887233 55.5824179,75.9527938 55.5861429,75.8179478 C55.5872943,75.778598 55.5582391,75.7384355 55.5108974,75.6148324 L54.8206163,75.6148324 C52.0439824,75.6148324 49.2672807,75.6157128 46.4905791,75.6131392 C46.2204131,75.612936 45.9477413,75.6103623 45.6804199,75.5756857 C44.7254589,75.4519472 44.2181104,74.7832035 44.3757806,73.810701 C44.4983,73.0546563 44.6555638,72.3026075 44.8327396,71.5571283 C47.9031087,58.632848 57.6088994,48.6658314 70.4534643,45.2727396 C74.8422892,44.1133085 79.2993837,43.8127328 83.8114054,44.3514392 C91.5662987,45.2772773 98.3301998,48.3764307 104.039241,53.6953607 C109.445879,58.7326109 112.899722,64.9117508 114.509881,72.1225195 C114.539275,72.2543176 114.569617,72.3861158 114.605039,72.5163562 C114.61662,72.5587538 114.645811,72.596275 114.686719,72.6732814 L123.383298,72.6732814 C123.155733,71.5815781 122.970566,70.5408737 122.720244,69.5160176 C120.676492,61.1485269 116.589597,53.9345073 110.387904,47.9552997 C104.136702,41.9284118 96.7259329,38.081341 88.2091026,36.3599052 C84.334128,35.5766339 80.4215645,35.3326109 76.4896986,35.6073146 C68.8920691,36.1380291 61.8720217,38.4598713 55.4778463,42.617406 C54.4760853,43.2688114 53.5146224,43.9832712 52.5475381,44.6863529 C51.7304707,45.2804605 51.0367355,45.26021 50.3187538,44.5457501 C48.1584423,42.3961395 46.0049035,40.2396885 43.8562411,38.0785642 C43.6831967,37.9045716 43.5671791,37.673891 43.4133017,37.4533017 C43.1140129,37.6805283 42.9481476,37.7902472 42.8006366,37.9208263 C34.3638605,45.3886217 28.5723942,54.5200813 25.5716492,65.393295 C24.548554,69.1006434 23.9513308,72.8808669 23.7305384,76.7252963 C23.1985371,85.989299 24.9043278,94.8225533 28.7811988,103.241178 C30.6588825,107.318591 33.0256959,111.098002 35.8265086,114.605757 C36.009509,114.834948 36.2059871,115.055334 36.3698205,115.297663 C36.8160786,115.95767 36.7032442,116.773722 36.1157061,117.242262 C35.5257975,117.712767 34.6819099,117.66529 34.159255,117.08256 C33.7078496,116.579275 33.297555,116.03786 32.8859059,115.500508 C27.3746292,108.30552 23.7027701,100.268676 21.8937623,91.3882154 C20.9570877,86.7899763 20.5717846,82.1348459 20.8107958,77.4523535 C21.5339925,63.286082 26.6510938,50.9117508 36.1843143,40.4028446 C42.7322994,33.184829 50.5973857,27.8838469 59.7639959,24.5424992 C64.6442533,22.7634948 69.676424,21.6315611 74.8553607,21.2511344 C89.4867186,20.1762276 102.723698,23.9951236 114.545235,32.6915679 C115.290173,33.2396207 116.012692,33.8191669 116.731283,34.4018286 C117.195625,34.7783271 117.339275,35.2904843 117.206055,35.8642736 C117.083535,36.3921436 116.73108,36.7307145 116.217975,36.8817474 C115.670328,37.0429394 115.216214,36.8418557 114.776322,36.5082966 C113.410254,35.4721978 112.064098,34.4041314 110.645946,33.443278 C104.248317,29.1087707 97.2437115,26.2423298 89.6394446,24.8375889 C85.6500102,24.1005757 81.6277277,23.7807653 77.5807247,23.9578056 C65.9064274,24.4682696 55.3853302,28.2348121 46.0421537,35.26617 C45.915977,35.361192 45.7920352,35.4592618 45.670938,35.5605147 C45.6386996,35.5874704 45.6208872,35.6316966 45.6326041,35.6142906 C47.6487233,37.6277684 49.6554284,39.631832 51.7100169,41.6837115 C51.75702,41.6551981 51.9133356,41.5740603 52.055022,41.4725364 C57.9294548,37.2644091 64.4290823,34.5433796 71.5474704,33.3176431 C74.9608805,32.7298341 78.4001625,32.527125 81.8652489,32.707958 C91.047572,33.1871317 99.4372773,36.0106333 106.905276,41.3655943 C116.843034,48.4915679 123.12573,58.0809346 125.773613,70.0301388 C126.60768,73.7935659 126.957494,77.6117169 126.808967,81.4601422 C126.421632,91.4952252 123.233146,100.544734 117.152753,108.557738 C116.817907,108.999052 116.465588,109.392347 115.847707,109.408669 C114.742255,109.438063 114.016417,108.329428 114.515977,107.343244 C114.62678,107.124484 114.789665,106.930511 114.939343,106.73322 C119.244118,101.057298 122.02678,94.7111412 123.281504,87.7015239 C123.948554,83.9746698 124.124985,80.2180833 123.827254,76.4415848 C123.814859,76.2842533 123.795422,76.1272604 123.772191,75.971148 C123.758984,75.8829665 123.731216,75.7969523 123.686854,75.6145615 L122.980792,75.6145615 C120.091256,75.6146292 117.20172,75.6146969 114.312116,75.6147646 C114.154108,75.6147646 113.996031,75.6167288 113.83809,75.6139519 C112.617839,75.5925499 112.170769,75.2119878 111.958375,74.0314934 C110.677982,66.9145953 107.430098,60.8442939 102.178083,55.8801219 C97.3374467,51.3047748 91.591087,48.4724009 85.023935,47.4024382 C70.9076465,45.1026752 57.259492,51.8932611 50.6263055,64.2323061 C49.2946427,66.7095157 48.315977,69.322384 47.6514324,72.0538435 C47.619465,72.1852354 47.5942025,72.3187267 47.5751033,72.4524213 C47.5660278,72.5156112 47.578896,72.581849 47.5833661,72.6814765" id="Fill-1" fill="#000000"></path>
                            <path d="M113.568764,124.14827 C111.552916,122.133911 109.546007,120.128425 107.491622,118.075665 C107.382851,118.146102 107.194704,118.258327 107.016647,118.384843 C100.855726,122.761273 94.0431967,125.518876 86.5638198,126.620061 C68.1160041,129.336079 49.8820725,121.051351 39.8245039,105.362966 C36.2446868,99.7789502 33.9671385,93.6963901 32.935171,87.14021 C32.3956519,83.7121707 32.2287707,80.2659126 32.4617541,76.8140332 C33.0969048,67.403874 36.2443481,58.910342 41.9237928,51.367301 C42.072997,51.1691297 42.2206434,50.9664883 42.3936878,50.7900576 C42.9254182,50.2479648 43.7112631,50.2025872 44.2981917,50.665574 C44.8503759,51.1011311 45.0005283,51.8596817 44.6494954,52.4910396 C44.5623976,52.6477616 44.4486827,52.7906671 44.3392347,52.9337758 C40.0816661,58.4988283 37.307064,64.7288994 35.9955164,71.6074636 C35.2257907,75.6444429 35.0639892,79.7154893 35.4100102,83.8083441 C35.4191534,83.9162343 35.4528818,84.0219573 35.4887098,84.1938503 L36.2373722,84.1938503 C39.3076736,84.1937826 42.3779072,84.1930376 45.4482086,84.194189 C46.6123129,84.1945953 47.0096038,84.5319472 47.2238943,85.6875855 C48.6777379,93.526258 52.3940941,100.068148 58.5082154,105.200217 C62.9023231,108.888534 67.9424179,111.275462 73.5996478,112.251013 C83.2455672,113.914406 92.0478022,111.86659 99.823488,105.889617 C105.910112,101.210985 109.782242,95.0378733 111.584138,87.5721097 C111.620305,87.4220928 111.637372,87.2675381 111.669204,87.0804741 L102.876248,87.0804741 C102.748852,87.4328615 102.624368,87.7931053 102.489116,88.1492177 C99.5191873,95.9687233 94.0084524,101.02934 85.9775008,103.353688 C85.5555571,103.475801 85.1300237,103.539059 84.7236573,103.335808 C84.1975483,103.072685 83.8992753,102.641734 83.907064,102.038077 C83.914785,101.439567 84.1975483,100.997779 84.7414697,100.755313 C85.0275516,100.627714 85.3401829,100.557548 85.6435354,100.471128 C93.5397088,98.2236505 99.5315137,91.4457298 100.807233,83.3163021 C101.192198,80.8636776 101.172895,78.4169455 100.697921,75.977257 C100.676857,75.8691636 100.643942,75.7633728 100.593688,75.5674365 C100.35488,75.5674365 100.114717,75.5675042 99.8745547,75.5674365 C96.5333424,75.567301 93.1919946,75.5496241 89.8511209,75.5794243 C89.0338503,75.5866712 88.5180359,75.2895496 88.0845784,74.5984558 C86.5870505,72.2113918 84.45234,70.6864341 81.6843752,70.0865019 C77.7529834,69.234487 73.7221673,70.8298137 71.4148188,74.1435286 C71.2472604,74.3840975 71.0992753,74.638212 70.9334778,74.8801355 C70.4457704,75.5919539 69.604321,75.791683 68.9276532,75.3607992 C68.2783474,74.9473891 68.0781443,74.118808 68.4973789,73.3920217 C69.4003928,71.8265628 70.5837318,70.5026888 72.0496309,69.4440366 C77.7719472,65.3112902 85.6859329,66.5169116 89.8966339,72.1777988 C90.2061497,72.593918 90.5172232,72.730999 91.0152929,72.727003 C93.7241991,72.7048561 96.4333762,72.7171825 99.1424179,72.715083 C99.338896,72.7149475 99.5354419,72.6943583 99.8110938,72.6788486 C99.7095022,72.3891094 99.6413681,72.1563292 99.5480393,71.9342499 C96.8350694,65.4766813 92.1378124,61.2262919 85.4125161,59.233742 C85.2181375,59.1761734 85.0182729,59.132489 84.8305317,59.0581917 C84.12596,58.7796275 83.7577921,58.0639485 83.9474297,57.362086 C84.1428242,56.6386861 84.8627701,56.1892448 85.6209143,56.3259871 C85.8201016,56.3620183 86.0154284,56.4214155 86.2110938,56.4752591 C95.2103488,58.9503691 101.97662,66.4271724 103.566529,75.6287301 C104.036085,78.3459668 104.050444,81.0597494 103.631886,83.7806434 C103.615157,83.8893464 103.606014,83.9992008 103.583529,84.1938503 L104.341605,84.1938503 C107.344179,84.1940535 110.346685,84.1905994 113.349258,84.1967626 C114.191114,84.1985235 114.751087,84.6677413 114.856742,85.4459329 C114.880176,85.6189773 114.851189,85.803874 114.82105,85.9789502 C113.506522,93.6279174 110.095821,100.19297 104.538354,105.606041 C99.4388622,110.573058 93.3547443,113.731067 86.3615848,115.038686 C71.8442127,117.753078 57.5198645,111.618842 49.6012056,99.4395665 C47.2905384,95.8856891 45.6891162,92.0291365 44.7541348,87.8951033 C44.6950762,87.6340129 44.6295835,87.3744125 44.5603657,87.0858923 L35.8005283,87.0858923 C36.0580291,88.2908364 36.2700169,89.4609008 36.5599594,90.6111886 C38.5707281,98.5876194 42.4606028,105.514067 48.2922994,111.317386 C54.5352387,117.529848 61.9969387,121.523346 70.614277,123.34082 C74.7475652,124.212543 78.9288723,124.489143 83.1379478,124.139736 C91.5714054,123.439634 99.211297,120.595611 106.02403,115.559309 C106.241774,115.39832 106.454914,115.230965 106.673403,115.070992 C107.488033,114.47492 108.132936,114.513119 108.845432,115.209089 C109.329888,115.682235 109.804456,116.165608 110.283359,116.644511 C111.991453,118.352604 113.699208,120.060969 115.408114,121.768182 C115.565987,121.925919 115.731581,122.076004 115.930159,122.264558 C116.587592,121.671263 117.23385,121.112103 117.853762,120.525039 C125.716885,113.077291 131.077941,104.139262 133.815361,93.6494548 C134.642994,90.4779682 135.178043,87.2544666 135.395449,83.9803048 C136.363007,69.4183678 132.260806,56.4400406 123.228635,44.9998781 C123.074826,44.8051609 122.90659,44.6191128 122.775401,44.4100373 C122.391724,43.7992008 122.505845,43.0262242 123.031412,42.5675042 C123.589015,42.0806773 124.380007,42.0879241 124.942824,42.594934 C125.075977,42.7148121 125.187931,42.8596817 125.301172,42.9998781 C131.517765,50.6976769 135.585628,59.3914799 137.433376,69.1207721 C138.339641,73.8923942 138.660535,78.7078361 138.313769,83.5419709 C137.282614,97.9179953 131.749258,110.320501 121.751222,120.705195 C115.253559,127.454263 107.571473,132.388093 98.7218286,135.480542 C93.9496647,137.148134 89.0404876,138.173329 83.9947714,138.542242 C72.2612123,139.400217 61.2641246,136.938923 50.9916559,131.223515 C48.086407,129.607057 45.3552861,127.727206 42.7722181,125.633607 C42.6146834,125.505872 42.4532882,125.378544 42.31702,125.229678 C41.8230816,124.690159 41.7985642,123.934182 42.2446868,123.36913 C42.6721165,122.827782 43.4612123,122.675462 44.0781443,123.034216 C44.2910125,123.15809 44.4809888,123.323413 44.6741483,123.478781 C51.4148866,128.897474 58.9882018,132.596966 67.4303962,134.503027 C71.8991399,135.511967 76.4225398,135.954094 81.0026278,135.816945 C92.7972096,135.463678 103.4115,131.724429 112.884849,124.7098 C113.102188,124.548879 113.314108,124.38044 113.525418,124.211663 C113.55874,124.185046 113.575537,124.137839 113.568764,124.14827" id="Fill-3" fill="#000000"></path>
                            <path d="M152.521334,79.4229665 C152.248527,98.2232374 145.902303,114.864416 133.031934,128.890559 C122.960142,139.866719 110.579174,147.022696 96.1021673,150.539255 C94.810193,150.853105 93.499255,151.089272 92.1960379,151.356051 C92.020149,151.392015 91.8378937,151.407592 91.6580765,151.411588 C90.8001016,151.430891 90.1921774,150.921172 90.0582797,150.078639 C89.9400271,149.334379 90.4228581,148.596959 91.2070775,148.40319 C91.8409414,148.246603 92.4905858,148.155171 93.1314934,148.026217 C101.308534,146.380501 108.948087,143.365195 116.033085,138.96831 C126.514765,132.4634 134.752895,123.806915 140.728242,113.01572 C144.542939,106.126387 147.092211,98.7863258 148.406603,91.0177514 C149.154182,86.5993295 149.484152,82.1524619 149.386353,77.6732882 C149.275144,72.5799594 148.632543,67.5552387 147.429292,62.6037318 C145.825703,56.00468 143.313275,49.7714934 139.89614,43.902682 C139.771724,43.6891365 139.649746,43.4699018 139.562716,43.2396952 C139.301896,42.5496851 139.565086,41.7891026 140.177548,41.4102337 C140.773688,41.0415916 141.542668,41.1185303 142.044125,41.6308906 C142.246156,41.8373925 142.411277,42.0884592 142.557162,42.3401355 C146.793735,49.6480935 149.714494,57.4445039 151.248121,65.756661 C151.801456,68.7552387 152.191026,71.7729834 152.340095,74.8192414 C152.411751,76.2838537 152.456383,77.7498205 152.521334,79.4229665" id="Fill-5" fill="#000000"></path>
                            <path d="M66.4184219,151.411134 C65.7556383,151.28428 64.8894683,151.135212 64.0306129,150.951466 C51.1052489,148.18682 39.7244158,142.387091 29.9122926,133.531622 C23.1547579,127.432807 17.7387064,120.301619 13.6275652,112.180183 C13.4549949,111.839309 13.2730782,111.496607 13.1565865,111.135076 C12.9221808,110.407206 13.2661023,109.651297 13.9418219,109.316045 C14.615916,108.98147 15.4271588,109.177135 15.8749069,109.792712 C15.9801558,109.937379 16.060955,110.101686 16.13979,110.263488 C19.4116492,116.9749 23.7060616,122.961422 28.9191331,128.297081 C34.2467321,133.749909 40.3038266,138.214927 47.0816119,141.702161 C53.1368778,144.817704 59.5187267,146.980996 66.2081951,148.243237 C66.4960379,148.297487 66.7911277,148.322953 67.0728073,148.398943 C67.889062,148.619194 68.3317982,149.313132 68.2089401,150.146725 C68.0952929,150.917806 67.4582459,151.42766 66.4184219,151.411134" id="Fill-7" fill="#000000"></path>
                            <path d="M136.050268,29.0552929 C136.148473,31.5784219 134.108852,34.4295564 130.6949,34.4248154 C127.31874,34.42021 125.330389,31.6258991 125.345493,29.1006705 C125.363711,26.0848899 127.748337,23.637616 130.749285,23.6909177 C134.061036,23.7496377 136.126529,26.4752726 136.050268,29.0552929" id="Fill-9" fill="#CB1515"></path>
                            <path d="M11.5606434,72.9523874 C11.4643346,73.5809008 11.3802167,74.1291568 11.2822824,74.7684389 C7.52440908,74.2503894 3.81645107,73.6677955 0.0801828649,73.1192685 C-0.0103013884,72.5192008 0.151296986,71.9715544 0.26358957,71.4335252 C0.303074839,71.2442262 0.583332205,71.0772773 0.78644768,70.9542161 C3.48627836,69.3187267 6.19227227,67.6932611 8.8958957,66.063935 C9.31106671,65.8138165 9.72224179,65.5572638 10.1353132,65.3036234 C10.1246123,65.2568913 10.1139113,65.2102269 10.1032103,65.163427 C7.22159837,64.7319336 4.33998645,64.3003725 1.3813681,63.8572977 C1.47232645,63.2391466 1.55590247,62.6711818 1.65126312,62.0230952 C5.42105655,62.5823231 9.13314595,63.1329495 12.9445919,63.6982729 C12.8534304,64.288317 12.8010091,64.8423976 12.6665696,65.3757535 C12.6223434,65.5511006 12.384619,65.7040975 12.2031764,65.8142906 C10.2373789,67.0081273 8.26528276,68.1913986 6.29481206,69.3775821 C5.30964443,69.9706739 4.3237318,70.5625466 3.33998645,71.1580088 C3.15271927,71.271385 2.97412123,71.3989841 2.64970538,71.6141551 C5.70734169,72.0733491 8.60961057,72.5091771 11.5606434,72.9523874" id="Fill-11" fill="#000000"></path>
                            <path d="M117.132604,22.8275787 C116.602499,22.5285608 116.101653,22.2776295 115.641443,21.9664883 C115.509983,21.8776295 115.467721,21.6195869 115.433044,21.4302201 C114.893999,18.48149 114.36342,15.5312022 113.82959,12.5815239 C113.705852,11.8978124 113.577034,11.2151168 113.325628,10.5032983 C111.887227,13.0644226 110.448757,15.6255469 108.981842,18.2375347 C108.433451,17.9280867 107.931588,17.6449848 107.363827,17.324768 C109.231758,13.9899221 111.077541,10.6945615 112.940731,7.36811378 C113.429726,7.63956654 113.858849,7.88467321 114.294744,8.11697934 C114.545676,8.25067389 114.604937,8.47133085 114.650654,8.7276126 C115.192814,11.7677074 115.742154,14.8065154 116.291697,17.8453234 C116.39891,18.4380765 116.514995,19.0292719 116.764233,19.6587335 C118.198706,17.1049915 119.633315,14.5512496 121.092577,11.9534846 C121.655869,12.2689604 122.159966,12.5512496 122.714589,12.8617135 C120.845574,16.1985913 119.008798,19.4779004 117.132604,22.8275787" id="Fill-13" fill="#000000"></path>
                            <path d="M50.4570945,17.6840433 C49.8806637,17.9163495 49.3443278,18.1324687 48.733085,18.3788622 C47.3178463,14.8463867 45.9148662,11.3441178 44.4862851,7.77825262 C45.0259397,7.56186251 45.5111412,7.32535726 46.0225533,7.18339993 C46.2185574,7.12901456 46.4962411,7.25024721 46.6996275,7.35996614 C48.6833728,8.42992889 50.6596004,9.51377582 52.6371825,10.5949814 C53.7248222,11.1895632 54.8102946,11.7880731 55.8986793,12.3813681 C56.0482221,12.4628446 56.2088723,12.5240704 56.5097189,12.6608127 C55.3721639,9.81570606 54.2882492,7.10483576 53.1773112,4.32617 C53.7299695,4.10300711 54.2646123,3.88709109 54.7904504,3.67476465 C55.1299018,4.09914663 58.6386725,12.7076803 59.1009821,14.2412394 C58.615171,14.4388689 58.1325432,14.6770674 57.6233661,14.821192 C57.4251947,14.877406 57.1436505,14.7649103 56.9399255,14.6552591 C55.4314934,13.8438131 53.9334914,13.0131324 52.4316289,12.1896309 C50.9099898,11.3552929 49.3878767,10.5216322 47.8650864,9.68939384 C47.6716559,9.58367084 47.4726041,9.48824247 47.1687098,9.45627497 C48.2571622,12.1794717 49.3454792,14.9026685 50.4570945,17.6840433" id="Fill-15" fill="#000000"></path>
                            <path d="M12.9907958,59.1982323 C13.4617745,57.8643346 14.0489739,56.6388689 14.2822282,55.3009076 C14.3897122,54.6844497 14.428317,54.0457094 14.4080664,53.4199729 C14.378808,52.5114731 14.0165323,51.7108635 13.3905249,51.0461835 C11.5353268,49.076661 8.47816458,49.1783204 6.78097528,51.2676532 C5.62973925,52.6849915 5.2259465,54.4319607 4.58612259,56.147572 C7.41477142,57.1742567 10.179553,58.1778463 12.9907958,59.1982323 M13.529299,61.3770335 C9.91968168,60.0668405 6.41030139,58.793085 2.85479851,57.5026007 C2.90051473,57.3112022 2.92489672,57.1395801 2.98226211,56.9796749 C3.44667118,55.6864815 3.91026752,54.3929495 4.38788351,53.1045648 C4.83779885,51.8908161 5.44118524,50.7608466 6.30661023,49.7874636 C7.23393837,48.744321 8.35164917,48.0367017 9.76092787,47.8335862 C12.4739655,47.4425262 15.1483982,49.3653844 15.6438943,52.05851 C15.8473485,53.1643684 15.8027836,54.262235 15.5620792,55.3480461 C15.1070843,57.4007382 14.2101659,59.3036844 13.529299,61.3770335" id="Fill-17" fill="#000000"></path>
                            <path d="M10.3648561,84.0524619 C10.3697325,82.9634677 10.1317372,81.8721029 9.54812733,80.8752184 C8.68893329,79.4076261 7.38686759,78.6395259 5.69685743,78.6818557 C3.93397223,78.7259465 2.58063664,79.5392211 1.83624111,81.1793837 C1.5888317,81.7245242 1.41809008,82.3309583 1.34853369,82.9252015 C1.15388419,84.5883915 1.42818151,86.1727464 2.46780224,87.5368507 C4.20562817,89.817108 7.73112767,89.7552726 9.40576363,87.4311954 C10.1188012,86.4415577 10.3723739,85.3136878 10.3648561,84.0524619 M11.6826346,84.1877819 C11.6432848,85.6950626 11.3553065,87.1390179 10.5503623,88.4444023 C8.51676939,91.7421334 4.19018625,92.0230681 1.74792414,89.0136539 C0.844571622,87.9006163 0.325438537,86.6135185 0.122458517,85.2051879 C-0.157324754,83.2639756 0.00637317982,81.3831087 0.991202167,79.6343786 C2.97521842,76.1113173 7.56384016,75.7829055 10.0220183,78.9936065 C11.1934372,80.5235083 11.6202574,82.2968913 11.6826346,84.1877819" id="Fill-19" fill="#000000"></path>
                            <path d="M37.290403,23.1395665 C39.5460752,23.1422757 42.0303962,21.4815239 42.8878293,19.3978801 C44.0303962,16.6211107 41.9724213,13.4880257 38.974724,13.4405486 C36.7221673,13.4048561 34.206556,15.0223298 33.3086895,17.0836234 C32.0723197,19.9221605 34.1852895,23.1358415 37.290403,23.1395665 M37.3464815,24.6114257 C34.153593,24.6160312 32.0809888,23.1057704 31.4261971,20.7457975 C31.0997494,19.5693667 31.2070301,18.4205689 31.6324958,17.2983881 C32.8848493,13.9952387 36.8415036,11.6641178 40.0527464,11.9820318 C43.478957,12.3211446 45.7076736,15.5810836 44.6658178,18.8628987 C44.5036099,19.3739722 44.2983271,19.890193 44.0121097,20.3399052 C42.3239282,22.9925974 39.8951439,24.4152861 37.3464815,24.6114257" id="Fill-21" fill="#000000"></path>
                            <path d="M16.6610904,44.3060007 C17.5667457,42.8262851 18.430342,41.415381 19.304233,39.9876126 C18.1953945,39.6802641 13.7217067,39.1705452 13.1974941,39.2917779 C14.3394514,40.9448764 15.4742296,42.5878158 16.6610904,44.3060007 M24.4543854,38.7496851 C24.0750423,39.3714257 23.7628175,39.8829732 23.4369116,40.4170742 C22.5194717,40.3135862 21.6277684,40.2130105 20.6642059,40.1043752 C19.5983068,41.8436234 18.5302404,43.586258 17.4255334,45.388764 C17.9373518,46.1440637 18.451744,46.9030884 18.9874026,47.693471 C18.66915,48.2134846 18.3542838,48.7280122 18.0375889,49.2455875 C17.6308161,48.9333627 11.6368439,40.2432848 10.9935659,39.0398984 C11.3273281,38.4884592 11.6755842,37.9131121 12.0735523,37.255679 C16.1356587,37.7458923 20.2218083,38.2389502 24.4543854,38.7496851" id="Fill-23" fill="#000000"></path>
                            <path d="M97.4354758,4.88125296 C96.7759431,4.76868947 96.1627362,4.66405012 95.5172232,4.55385709 C95.3776363,3.72006095 94.8932475,3.15859804 94.1695767,2.79957332 C93.2705588,2.353383 92.3157332,2.21311886 91.3378124,2.42429394 C90.64936,2.57295632 90.1645648,3.00316289 90.0233525,3.72588554 C89.8885743,4.41535388 90.2163088,4.93380969 90.767274,5.27041653 C91.3991737,5.65632916 92.0769252,5.96943447 92.7445852,6.29391805 C93.45383,6.63858449 94.1881341,6.93394514 94.884917,7.30123264 C95.2585709,7.49832035 95.6099424,7.76686082 95.913295,8.06276329 C96.9302269,9.05429732 96.9346292,10.6243617 95.9512225,11.6521978 C95.2580969,12.3766136 94.3701863,12.6903285 93.4062851,12.776275 C91.7400474,12.9249374 90.1701863,12.5696377 88.7393024,11.699404 C87.8359499,11.1499966 87.1865086,10.3915814 87.0755029,9.28308161 C87.0603996,9.1323874 87.087423,8.97735862 87.0970403,8.78155774 C87.762533,8.73678971 88.3568439,8.93672198 88.9984964,9.0493532 C89.078957,9.78006773 89.3556925,10.4007247 89.9842736,10.8152861 C90.8070301,11.3579208 91.7268405,11.5559567 92.6917575,11.5048222 C93.0872198,11.4838266 93.5074026,11.3938165 93.8611446,11.2218557 C94.9616526,10.6868066 95.1244023,9.38013546 94.1661903,8.62009482 C93.6790924,8.23370809 93.0958212,7.95764985 92.5311073,7.68287843 C91.9032712,7.37749407 91.2319539,7.16062987 90.6079106,6.84874365 C90.0664274,6.57810362 89.5193905,6.28369116 89.0533559,5.90346766 C87.6490891,4.7577853 87.8007315,2.68951575 89.3248764,1.70001355 C89.968019,1.28253979 90.6891162,1.09811717 91.4384558,1.05511006 C92.8625669,0.973498137 94.2248425,1.24210633 95.4969726,1.90116492 C96.1484456,2.23871995 96.7050999,2.69385032 97.081192,3.33814426 C97.3446529,3.78961734 97.5146495,4.2659465 97.4354758,4.88125296" id="Fill-25" fill="#000000"></path>
                            <path d="M77.7794853,1.25920759 C77.827572,2.71284795 77.657169,4.04959025 77.7481273,5.46733491 C78.9440637,5.46733491 80.0669895,5.49090417 81.188019,5.4546021 C81.5840908,5.44180156 81.9954013,5.33160853 82.3646529,5.18030477 C83.0960447,4.88047409 83.4902201,4.31399932 83.5088452,3.50316289 C83.5341077,2.40190992 82.9605892,1.69029462 81.7726448,1.44247884 C80.4848019,1.17387064 79.1778598,1.32205892 77.7794853,1.25920759 M77.6792482,6.71799526 L77.6792482,11.3786116 C77.0272333,11.4697731 76.438747,11.4392279 75.7693261,11.3635083 C75.826556,7.5808466 75.8832442,3.82988148 75.9405418,0.043765662 C76.1725093,0.0254791737 76.3472469,-0.00256010836 76.5214426,0.000284456485 C77.9639079,0.0242600745 79.4065086,0.0445783949 80.8485676,0.0848763969 C81.8956383,0.114134778 82.9117575,0.301469692 83.8359702,0.827578733 C85.2150423,1.61267863 85.7791466,3.12497122 85.216126,4.53140535 C84.8968574,5.32889942 84.2914392,5.8485066 83.5213749,6.19066712 C82.5093871,6.640447 81.4371216,6.72917034 80.3471114,6.71948527 C79.4934033,6.71196749 78.6394243,6.71799526 77.6792482,6.71799526" id="Fill-27" fill="#000000"></path>
                            <path d="M106.86279,10.3520488 C106.723678,10.7576702 106.609489,11.0906874 106.469292,11.4992211 C104.82913,10.9329495 103.224931,10.3790721 101.568581,9.80724687 C101.132347,11.0451067 100.715076,12.2291229 100.268886,13.4952929 C102.092455,14.13681 103.887037,14.768168 105.742032,15.4207247 C105.611791,15.7953945 105.496993,16.126109 105.35402,16.5374196 C104.09977,16.1887572 102.91616,15.7171013 101.714196,15.304978 C100.526929,14.8977988 99.3435218,14.4792414 98.1025466,14.0463258 C99.367362,10.4394853 100.609489,6.89732475 101.881077,3.27091094 C104.314263,4.11933627 106.703766,4.95245513 109.123813,5.79627497 C108.979621,6.20209956 108.861097,6.53559092 108.71616,6.94317643 C106.888527,6.31181849 105.109455,5.6971893 103.236647,5.05011852 C102.819512,6.23366068 102.41274,7.38760582 101.975422,8.62844565 C103.602648,9.20223502 105.184633,9.76024382 106.86279,10.3520488" id="Fill-29" fill="#000000"></path>
                            <path d="M1.29532679,94.3214155 C1.71970877,94.2171148 2.04385371,94.137467 2.46065019,94.0349949 C2.97632916,96.0348595 3.4846258,98.0056688 4.00457162,100.022059 C5.26024382,99.7044158 6.45279377,99.4026888 7.71070098,99.0845039 C7.30108364,97.4381104 6.90690823,95.8538232 6.49884863,94.2134575 C6.90704368,94.1088859 7.24520826,94.0222621 7.6499492,93.9185709 C8.072638,95.5512834 8.48184897,97.1318456 8.90690823,98.7735659 C10.5789028,98.3564985 12.1883847,97.9550085 13.8724348,97.5348933 C14.0281409,98.138957 14.1715205,98.6955435 14.3339993,99.326021 C10.6477819,100.262086 7.01100576,101.185554 3.28327125,102.132116 C2.61879445,99.5213478 1.96650864,96.9585303 1.29532679,94.3214155" id="Fill-31" fill="#000000"></path>
                            <path d="M19.8543447,28.6097663 C18.9868202,29.6006908 18.15851,30.5469827 17.2883441,31.5408872 C16.9841111,31.2739722 16.7035828,31.0278496 16.3793024,30.7433254 C18.4961327,28.3148121 20.582147,25.9216526 22.7094074,23.4809482 C23.0259668,23.7507078 23.3102201,23.9928344 23.6261023,24.2619167 C22.7790315,25.2443075 21.9580359,26.1963562 21.0899695,27.2029936 C23.6492652,29.4437657 26.1719201,31.6524348 28.7508568,33.9102743 C28.3375144,34.3845039 27.9450322,34.8348256 27.5295225,35.3114934 C24.9494345,33.0586658 22.4234609,30.8529766 19.8543447,28.6097663" id="Fill-33" fill="#000000"></path>
                            <path d="M25.0660075,21.40298 C25.538747,20.9691839 25.9516153,20.5903149 26.4389164,20.1431764 C29.0029529,22.948256 31.5476194,25.7322045 34.1111141,28.5366746 C33.9809414,28.6762614 33.8974331,28.7780562 33.8014629,28.86617 C33.471087,29.1698612 33.1361734,29.4687437 32.7548662,29.8128005 C30.1921165,27.0096851 27.6553742,24.2352184 25.0660075,21.40298" id="Fill-35" fill="#000000"></path>
                            <path d="M70.0554758,0.576769387 C70.6938097,0.512360312 71.2650254,0.454656282 71.9048493,0.390111751 C72.2983474,4.186319 72.6855469,7.92028446 73.0789773,11.7150017 C72.4422689,11.7819167 71.8691568,11.8422621 71.2301456,11.909448 C70.8363766,8.1108703 70.4491771,4.37548256 70.0554758,0.576769387" id="Fill-37" fill="#000000"></path>
                        </g>
                    </g>
                </g>
            </g>
        </g>
    </g>
</svg>