<?xml version="1.0" encoding="UTF-8"?>
<svg width="16px" height="16px" viewBox="0 0 16 16" version="1.1" xmlns="http://www.w3.org/2000/svg" xmlns:xlink="http://www.w3.org/1999/xlink">
    <!-- Generator: Sketch 53.1 (72631) - https://sketchapp.com -->
    <title>Fill 1</title>
    <desc>Created with Sketch.</desc>
    <g id="UX-UI" stroke="none" stroke-width="1" fill="none" fill-rule="evenodd">
        <g id="Ipsen-DT-UI-0400-ContactUs" transform="translate(-732.000000, -957.000000)" fill="#CB1515">
            <g id="article" transform="translate(150.000000, 310.000000)">
                <g id="Group-2" transform="translate(582.000000, 576.000000)">
                    <path d="M15.6477116,85.2159392 C15.4090829,85.7729281 14.7729281,86.1365259 14.2611769,86.4203923 C13.5910938,86.7839901 12.9091359,87 12.148012,87 C11.0911468,87 10.1360664,86.5685457 9.17024209,86.2162573 C8.4775402,85.9663191 7.80689168,85.6592684 7.1820463,85.2730518 C5.24983213,84.0799081 2.92065736,81.7501679 1.72751369,79.8185192 C1.34073158,79.1936738 1.03424633,78.5230253 0.784308182,77.8297579 C0.432019791,76.8639336 0,75.9094186 0,74.8525535 C0,74.0908641 0.216009896,73.4094716 0.579607705,72.7388231 C0.863474112,72.2276374 1.22763739,71.5909171 1.78406079,71.3522884 C2.15896802,71.1820816 2.95458562,71 3.3634211,71 C3.4431525,71 3.5228839,71 3.6026153,71.0339283 C3.84124404,71.1142251 4.09118219,71.6706485 4.20484184,71.8979678 C4.56843965,72.5454321 4.92072804,73.2047712 5.29563527,73.840926 C5.47715144,74.1366673 5.81813041,74.5002651 5.81813041,74.8525535 C5.81813041,75.5452553 3.76151263,76.5568828 3.76151263,77.1704188 C3.76151263,77.4774695 4.04537904,77.8755611 4.20484184,78.1475526 C5.35218236,80.2160452 6.78395476,81.6478176 8.85244743,82.7957236 C9.12500442,82.954621 9.52253048,83.2384874 9.8295812,83.2384874 C10.4431172,83.2384874 11.4541792,81.1818696 12.148012,81.1818696 C12.5003004,81.1818696 12.8638982,81.5228486 13.159074,81.7049302 C13.7957943,82.0798374 14.4545679,82.4321258 15.1025976,82.7957236 C15.3299169,82.9093833 15.8863403,83.1593214 15.9660717,83.3979502 C16,83.4776816 16,83.5568475 16,83.6365789 C16,84.0454144 15.8179184,84.841032 15.6477116,85.2159392" id="Fill-1"></path>
                </g>
            </g>
        </g>
    </g>
</svg>