<?xml version="1.0" encoding="UTF-8"?>
<svg width="16px" height="16px" viewBox="0 0 16 16" version="1.1" xmlns="http://www.w3.org/2000/svg" xmlns:xlink="http://www.w3.org/1999/xlink">
    <!-- Generator: Sketch 53.1 (72631) - https://sketchapp.com -->
    <title>search</title>
    <desc>Created with Sketch.</desc>
    <g id="UX-UI" stroke="none" stroke-width="1" fill="none" fill-rule="evenodd">
        <g id="Ipsen-DT-UI-0300-LiveFromLab" transform="translate(-1068.000000, -21.000000)" fill="#FFFFFF">
            <g id="TOP">
                <g id="HEADER">
                    <g id="search/white" transform="translate(1068.000000, 21.000000)">
                        <g id="search">
                            <path d="M6,0 C2.6862915,-2.02906125e-16 4.05812251e-16,2.6862915 0,6 C-4.05812251e-16,9.3137085 2.6862915,12 6,12 C7.14462722,12.0243804 8.27233544,11.7207666 9.25,11.125 L14,16 L16,14 L11.125,9.25 C11.7207666,8.27233544 12.0243804,7.14462722 12,6 C12,2.6862915 9.3137085,2.02906125e-16 6,0 M6,2 C8.209139,2 10,3.790861 10,6 C10,8.209139 8.209139,10 6,10 C3.790861,10 2,8.209139 2,6 C2,3.790861 3.790861,2 6,2" id="Shape" fill-rule="nonzero"></path>
                        </g>
                    </g>
                </g>
            </g>
        </g>
    </g>
</svg>